<svg width="105" height="68" viewBox="0 0 105 68" fill="none" xmlns="http://www.w3.org/2000/svg">
<path fill-rule="evenodd" clip-rule="evenodd" d="M51.8025 1.22662C49.457 2.44624 40.4975 11.265 39.3248 13.5166C38.3866 15.3461 34.8685 19.4271 32.7107 21.1158C29.2395 23.8834 23.7043 23.3674 19.5763 19.9431C18.5444 19.0518 17.2309 18.2075 16.6211 18.0198C16.0582 17.8322 14.8386 17.0817 13.8535 16.378C10.3823 13.6104 6.25434 12.9068 2.87693 14.5486C-1.95464 16.941 -0.688115 21.3504 6.5827 27.0732C8.45904 28.5274 11.2735 31.0604 12.9153 32.6553C15.4015 35.1884 15.8237 35.8451 15.8237 37.2992C15.8237 39.8792 14.8386 43.2566 13.619 44.8515C11.6488 47.4315 9.25648 53.7172 8.92812 56.9539C8.59976 60.5189 9.3503 62.536 11.6488 64.4592C15.6829 67.8366 23.0007 63.4273 24.8301 56.4848C25.4868 53.9986 27.8791 52.2161 29.4271 53.0136C30.3184 53.4827 31.3035 55.7812 31.3035 57.5168C31.3035 59.1586 32.9922 62.7236 34.0711 63.2865C35.2907 63.9432 38.6212 63.9433 39.8877 63.2396C41.7171 62.3015 43.4528 59.8622 43.7342 57.939C43.9218 56.907 43.6873 52.0285 43.2651 47.0562C42.1862 34.6255 42.5146 31.9048 45.892 25.4783C48.6127 20.3184 49.7385 18.8173 51.5679 18.0668C52.553 17.6915 53.6319 17.5039 53.9603 17.6446C54.3355 17.7853 55.6021 19.2395 56.8217 20.8813C60.3398 25.6659 60.2929 28.7619 56.681 35.1884C55.7428 36.8771 53.8664 40.7705 52.553 43.8195C50.3014 48.8387 50.0669 49.73 50.0669 52.7321C50.0669 55.5466 50.3014 56.5317 51.521 58.924C53.585 62.9582 55.7428 64.084 58.8387 62.7705C60.1991 62.2076 63.2012 59.6277 63.2012 59.0648C63.2012 58.8771 64.0456 57.3761 65.0776 55.7812C66.1096 54.1394 67.2354 52.1223 67.6106 51.3249C68.3143 49.7769 69.1586 48.9794 69.6277 49.4485C69.7684 49.5893 70.0968 50.6212 70.2844 51.7001C72.3484 62.6298 73.6618 65.7727 76.7578 67.0861C79.5254 68.2119 82.293 66.5232 84.1224 62.536C85.7173 59.1117 86.0926 55.1245 85.858 46.1649C85.6704 41.0519 85.8111 38.0498 86.1395 36.924C86.7962 35.0007 89.0947 32.8429 92.9881 30.4975C94.4423 29.6532 95.8964 28.5274 96.2248 28.0583C96.5063 27.5892 97.0691 27.2139 97.5382 27.2139C98.5702 27.2139 101.009 25.1499 102.651 22.8045C104.434 20.4122 104.575 17.0817 102.98 15.6275C99.4615 12.4377 97.632 12.8599 89.47 18.442L86.1864 20.6936H81.2141C76.3356 20.6467 76.1949 20.6467 73.4273 18.958C70.1437 16.941 68.8302 15.2523 65.7343 9.06033C61.5125 0.569897 57.4315 -1.72862 51.8025 1.22662ZM59.0264 5.26075C60.1053 6.33964 61.5125 8.40361 62.2162 9.85777C66.0626 17.5508 67.3761 19.6147 69.1586 20.5529C69.7215 20.8813 70.4251 21.3973 70.8004 21.6787C72.3953 23.1798 76.148 24.2118 80.6512 24.3525C84.7322 24.4463 85.4828 24.3525 88.3911 23.1329C90.1267 22.3823 92.8943 20.7875 94.4892 19.5678C97.632 17.1755 99.4146 16.7533 100.259 18.3013C100.54 18.8173 100.634 19.5209 100.447 19.8493C99.3677 21.6318 95.3804 25.1499 92.7536 26.6041C91.1118 27.5423 89.5169 28.4804 89.2354 28.715C89.0009 28.9026 87.8282 29.7939 86.6555 30.6382C85.4828 31.4826 84.0286 33.1244 83.3719 34.2502C82.293 36.1734 82.1992 36.8301 82.1992 41.9901C82.1992 45.086 82.293 49.8238 82.3868 52.5445C82.5744 57.0477 82.4806 57.7044 81.4017 60.0498C80.745 61.4571 79.8068 63.0051 79.2908 63.4742C78.3996 64.2716 78.3058 64.2247 77.133 63.052C75.7258 61.6447 75.5851 61.2695 74.9753 57.4699C74.2247 52.7321 72.7706 47.8067 71.7855 46.8217C71.2226 46.2588 70.1437 45.8835 69.1117 45.8366C66.9539 45.7897 64.7023 47.8536 63.4358 51.1372C62.9198 52.4038 62.2631 53.4827 61.9816 53.4827C61.6533 53.4827 61.278 54.0456 61.0903 54.7492C60.9496 55.4997 60.2929 56.8601 59.6362 57.8452C57.9944 60.3782 56.3526 60.1437 54.8984 57.2822C53.6319 54.843 53.7726 51.6532 55.2737 48.5104C55.7428 47.4784 56.165 46.2588 56.165 45.8366C56.165 45.3675 57.666 42.0839 59.4486 38.5189C61.278 34.9538 62.7321 31.7171 62.7321 31.295C62.7321 30.8728 62.9667 30.4037 63.2481 30.216C64.0456 29.747 63.4358 24.3994 62.2162 21.5849C61.0904 18.958 56.4464 14.2672 54.4763 13.7981C51.521 13.0475 45.9858 16.6595 44.2033 20.5529C43.7342 21.4911 42.796 23.1329 42.1393 24.1649C41.4357 25.1968 40.4975 27.2139 40.0284 28.6212C38.9026 31.9986 38.5274 40.1137 39.231 45.4144C40.0284 51.6532 40.0754 57.7513 39.2779 58.971C38.5274 60.1437 36.9794 60.6597 36.2289 60.0498C35.9005 59.8153 35.4314 58.1266 35.1031 56.2972C34.634 53.8579 34.118 52.5445 33.0391 51.1841C31.3035 49.0264 30.1308 48.6042 27.2224 49.0733C25.4399 49.3547 24.6894 49.8238 22.813 51.7939C21.5465 53.1074 20.4207 54.7961 20.2331 55.5935C19.6702 58.0797 18.0753 60.8473 16.7618 61.6447C15.0731 62.6298 14.604 62.5829 13.4782 61.4571C11.8834 59.8622 12.2117 56.1095 14.2288 51.7471C15.167 49.7769 16.1989 47.8536 16.5742 47.5253C16.9495 47.15 17.2309 46.5402 17.2309 46.2118C17.2309 45.8835 17.5124 45.2737 17.8407 44.9453C19.3418 43.4443 20.2331 38.6596 19.5294 35.8451C18.9196 33.4996 16.3397 30.6382 9.63175 25.0092C5.22235 21.3035 3.15838 18.5828 4.04964 17.6915C4.89399 16.8471 7.84923 17.1286 10.1947 18.2544C12.8215 19.5209 17.9346 22.7107 18.9196 23.6958C19.2949 24.071 20.1862 24.5401 20.8898 24.6809C21.5934 24.8685 22.4378 25.1969 22.7661 25.4783C23.1414 25.7598 25.1585 26.0881 27.3162 26.1819C30.5998 26.3696 31.4911 26.2288 32.6638 25.5252C35.1031 23.9772 39.6532 19.2864 40.5444 17.3631C41.0135 16.3781 41.8579 15.3461 42.4677 15.0646C43.0306 14.7832 43.4997 14.361 43.4997 14.1264C43.4997 13.845 44.0626 13.0476 44.8131 12.297C45.5167 11.5934 46.8302 10.1392 47.7683 9.10724C50.0199 6.57418 52.5061 4.74475 54.617 3.94731C57.0562 3.10296 56.8686 3.05605 59.0264 5.26075Z" fill="#474747"/>
<path fill-rule="evenodd" clip-rule="evenodd" d="M21.641 3.61877C18.4513 7.08999 18.0291 8.21579 18.6858 12.203C19.3425 15.9557 20.2807 17.4568 22.8137 18.7233C24.5025 19.6145 25.9566 19.8491 28.818 19.7553C30.6475 19.7084 34.9161 16.4717 35.5729 14.6423C35.8074 13.9386 36.2296 12.9066 36.511 12.3906C36.9332 11.5932 36.8394 10.7958 36.2765 9.01324C34.494 3.71258 31.4918 1.41406 26.4257 1.41406C23.705 1.41406 23.6112 1.46098 21.641 3.61877ZM30.7413 6.24564C33.8842 9.10705 33.462 13.2819 29.8031 15.6742C28.7711 16.331 28.0206 16.4717 26.285 16.1902C25.1123 16.0026 23.8457 15.5804 23.4705 15.2521C22.6261 14.3608 21.4534 11.5463 21.4534 10.3267C21.4534 9.10705 23.6581 6.10491 24.5025 6.10491C24.8308 6.10491 25.3468 5.77655 25.6752 5.40128C26.5195 4.4162 29.2871 4.88529 30.7413 6.24564Z" fill="#474747"/>
<path fill-rule="evenodd" clip-rule="evenodd" d="M77.8834 2.86846C74.7875 4.41644 73.1926 6.52732 72.8173 9.62328C72.1606 14.5487 73.5679 16.7534 78.4932 18.7235C83.3717 20.6468 88.4378 18.1606 90.1735 12.9538C91.5807 8.87274 89.9858 5.49534 85.6233 3.14991C82.7619 1.60193 80.5572 1.55502 77.8834 2.86846ZM83.5594 6.29278C85.4357 7.04331 87.1244 9.10729 87.1244 10.6084C87.1244 12.1094 85.6702 14.4079 84.3568 15.0178C83.747 15.2992 82.3397 15.6276 81.2139 15.8152C79.4314 16.0497 79.0561 15.909 77.9773 14.7832C76.4762 13.0945 76.1478 11.828 76.57 9.10729C76.8045 7.27786 77.086 6.85568 78.3525 6.33968C80.2758 5.49533 81.6361 5.49533 83.5594 6.29278Z" fill="#474747"/>
</svg>
