<svg width="105" height="68" viewBox="0 0 105 68" fill="none" xmlns="http://www.w3.org/2000/svg">
<path fill-rule="evenodd" clip-rule="evenodd" d="M50.1345 1.44317C49.9937 1.67772 49.2901 2.00608 48.5865 2.19371C46.6163 2.6628 42.3007 5.80566 41.7848 7.1191C40.8466 9.46453 41.3157 13.7332 42.8636 16.8292C44.4116 19.9251 44.74 20.1127 49.0556 21.3793C50.9319 21.9422 51.5886 21.9422 53.465 21.3793C58.7187 19.7844 61.2987 16.4539 61.5332 10.9656C61.7209 6.50929 60.4543 4.30459 56.7955 2.42825C53.981 1.06791 50.6505 0.551914 50.1345 1.44317ZM55.2006 5.4773C58.3904 6.83765 59.2347 11.5754 56.7955 14.5775C55.482 16.2193 52.7144 17.908 51.2603 17.908C49.8061 17.908 47.1323 16.1724 46.3818 14.7183C46.0065 14.0146 45.5843 12.5605 45.3967 11.5285C45.1153 9.74597 45.256 9.41762 46.6163 7.86964C49.1494 4.96131 52.0108 4.16387 55.2006 5.4773Z" fill="#474747"/>
<path fill-rule="evenodd" clip-rule="evenodd" d="M69.7896 7.02531C67.9601 8.15111 64.2544 12.2791 62.2373 15.375C60.0326 18.8462 55.3887 22.9742 53.2778 23.3495C51.0262 23.7716 47.6019 22.8335 46.0539 21.3793C45.3972 20.7695 44.6466 20.2535 44.3652 20.2535C43.4739 20.2535 40.4718 18.3302 40.4718 17.7673C40.4718 17.4859 40.331 17.3921 40.1903 17.5328C40.0496 17.7204 38.4547 17.2044 36.6253 16.4539C31.6061 14.3899 28.3225 14.7183 26.7276 17.439C24.4291 21.2855 27.7596 27.3367 34.1391 30.8079C36.7191 32.2152 38.2202 33.4348 39.5805 35.358C40.3779 36.4838 40.4249 36.8591 39.9558 38.7354C39.6743 39.9082 38.2202 42.6758 36.7191 44.8335C31.9813 51.8229 31.2308 54.0745 32.4973 57.9679C33.6231 61.3453 34.5144 62.9402 36.1093 64.4413C37.9387 66.1769 39.3929 66.646 41.1285 66.0362C44.1775 64.9573 45.1626 63.9253 47.4611 59.0468C51.0731 51.4007 52.6211 50.744 54.5443 56.1854C56.2799 61.1108 57.6872 63.034 60.0795 63.8315C62.5657 64.6289 63.7384 63.9722 65.6616 60.7355C66.8812 58.6715 66.9751 58.1086 66.9751 53.7931C66.9281 50.5564 66.5998 47.7419 65.8962 44.6928C65.2863 42.2536 64.8173 38.97 64.8173 37.3282C64.8173 34.6075 64.958 34.0915 66.8812 31.1832C68.0539 29.4476 69.6957 27.3367 70.5401 26.5861C74.9495 22.5989 77.2949 19.1277 77.8578 15.7034C78.2331 13.5925 76.7789 9.51146 75.0433 7.68202C73.3546 5.94641 71.9004 5.75878 69.7896 7.02531ZM72.6979 10.3089C73.4484 10.778 74.2459 12.9827 74.2459 14.6714C74.2459 17.4859 72.9324 19.2684 65.0987 27.2898C64.4889 27.9465 63.3162 29.9166 62.4718 31.7461C61.0646 34.842 61.0177 35.2642 61.2991 38.7823C61.4399 40.8463 62.0966 44.8335 62.7064 47.6011C64.0198 53.324 63.926 56.1385 62.3311 58.5777C60.5955 61.2984 59.9857 60.5479 57.781 53.1363C57.0305 50.5564 55.0603 48.5862 52.9025 48.211C51.5422 47.9295 50.9324 48.1171 49.4782 49.196C46.992 51.0724 46.3353 51.9636 44.8812 55.4349C43.4739 58.8592 41.2692 61.3922 39.5805 61.6268C38.6423 61.7206 38.2202 61.3453 37.0944 59.3283C34.7489 55.0127 35.3587 51.6353 39.3929 46.9913C41.4568 44.6459 43.7554 39.6736 43.7554 37.6096C43.7554 34.326 40.1434 29.9636 35.3587 27.5243C31.9344 25.7887 29.5421 22.5989 29.7766 20.1128C29.9174 18.7055 30.0112 18.6117 31.6999 18.6586C33.7639 18.7524 35.3587 19.4561 37.5634 21.2855C38.4078 22.036 39.3929 22.5989 39.7681 22.5989C40.0965 22.5989 40.4718 22.8335 40.5656 23.068C40.6594 23.3495 41.363 23.6778 42.1136 23.8185C42.8641 23.9593 43.8492 24.3345 44.2244 24.6629C45.5379 25.8356 48.0709 26.9145 50.4633 27.2898C54.2159 27.8996 56.5614 26.9145 60.83 22.9742C62.8002 21.1917 64.3951 19.503 64.3951 19.2684C64.3951 18.5179 66.5998 15.5157 69.2267 12.6543C71.9004 9.79291 71.8535 9.79291 72.6979 10.3089Z" fill="#474747"/>
</svg>
