<svg width="105" height="68" viewBox="0 0 105 68" fill="none" xmlns="http://www.w3.org/2000/svg">
<path fill-rule="evenodd" clip-rule="evenodd" d="M34.5779 1.23081C34.316 1.34305 32.9691 2.241 31.6222 3.25119C30.2753 4.26138 29.0032 5.0845 28.7413 5.0845C28.5168 5.0845 27.993 5.45864 27.5814 5.8702C27.2073 6.31918 26.1597 7.1423 25.2617 7.6661C24.4012 8.22732 22.9794 9.31233 22.0815 10.0606C17.9659 13.6524 14.4115 16.3837 13.3639 16.8326C11.4558 17.6558 9.73473 19.5639 10.034 20.5367C10.2959 21.472 10.4456 23.3428 10.7823 30.7134C10.8946 33.5943 11.0816 36.2133 11.1939 36.5875C11.3061 36.9242 11.7925 37.2984 12.3537 37.448C12.8775 37.5603 14.2619 38.3085 15.4591 39.0943C16.619 39.88 19.8366 41.7133 22.6053 43.2098C25.374 44.669 28.4794 46.3901 29.4896 46.9887C30.5372 47.6248 31.6222 48.2234 31.9215 48.3356C32.2208 48.4479 32.8943 48.7846 33.4181 49.0839C35.1766 50.1315 49.3192 57.0532 51.19 57.7641C52.2376 58.1756 54.9314 59.3729 57.1763 60.4579C59.4586 61.5055 62.0402 62.7402 62.9755 63.1518C63.9109 63.5633 65.5945 64.4239 66.7544 64.9851C69.3734 66.332 69.9346 66.332 71.4686 65.0225C72.1421 64.4613 73.5638 63.4137 74.6114 62.7028C75.659 61.9919 77.1556 60.8695 77.9039 60.2708C80.5229 58.1382 81.8698 57.128 84.4889 55.2573C88.4174 52.4138 91.1112 50.4683 92.3085 49.4581L93.3935 48.5601L93.0568 45.0432C92.8697 43.135 92.72 39.6181 92.72 37.2609C92.6826 32.0229 92.2336 30.2644 90.55 29.1046C89.8765 28.6556 89.016 28.2815 88.6418 28.2815C88.2677 28.2815 87.7065 27.9447 87.3698 27.5706C86.9956 27.159 85.0126 25.9618 82.88 24.8768C80.7848 23.8291 78.9515 22.7815 78.8393 22.6319C78.727 22.4448 78.3903 22.2952 78.0536 22.2952C77.7168 22.2952 77.1556 22.0707 76.8563 21.7714C76.2577 21.2476 75.5094 20.7986 69.336 17.5435C67.5775 16.6082 64.8837 15.149 63.3497 14.3259C58.4484 11.6694 55.6797 10.3225 55.1185 10.3225C54.7818 10.3225 54.1831 10.0606 53.7341 9.76131C53.2852 9.46199 51.6389 8.7137 49.9927 8.11507C46.8873 6.95522 44.3431 5.83279 43.7071 5.3464C43.52 5.19674 41.9486 4.14914 40.2275 3.0267C37.2718 1.08115 35.9997 0.669594 34.5779 1.23081ZM36.935 4.48587C37.6085 4.74777 38.8432 5.42123 39.6663 5.94503C41.1255 6.88039 41.2003 6.99263 40.7887 7.89058C40.3023 8.9756 37.0473 10.6967 35.5133 10.6967C34.9895 10.6967 33.8671 10.4348 33.0439 10.098C31.8467 9.61165 31.5474 9.31233 31.6222 8.67629C31.697 8.26473 31.5099 7.70351 31.2106 7.47903C30.7991 7.17971 31.1358 6.76815 32.8943 5.53348C35.401 3.73758 35.2514 3.77499 36.935 4.48587ZM47.6356 10.6967C47.6356 10.8837 47.2989 11.1082 46.8873 11.2579C46.5132 11.3701 45.7649 11.9688 45.2785 12.5674C44.4928 13.5028 44.3431 14.064 44.3057 16.6082L44.2683 19.6013L45.6526 20.6489C46.8873 21.5843 47.3737 21.7339 49.5063 21.6965C50.8532 21.6591 52.4246 21.5469 53.0607 21.3972C54.1457 21.1353 56.5776 19.5265 56.6525 19.0027C56.7647 18.3292 57.064 15.6728 57.1014 15.149C57.1389 14.6252 57.3634 14.6626 58.8599 15.3361C62.9007 17.2816 64.4721 18.217 64.4721 18.7408C64.4721 19.2646 65.1081 19.4891 66.2306 19.3394C66.7918 19.2646 68.5877 20.3496 69.2612 21.1353C69.4856 21.4346 69.7101 22.0707 69.7101 22.5196C69.7101 23.5672 67.8394 24.2407 64.8837 24.2781C60.6184 24.3155 58.3361 21.5843 61.6286 20.387C62.3021 20.1251 63.0878 19.6013 63.3497 19.1898C63.7612 18.4789 63.7238 18.4415 62.1898 18.666C59.6831 19.0027 58.8973 20.0877 58.6729 23.4924C58.4858 26.7101 58.6729 27.0094 61.4041 28.0944C63.3871 28.9175 66.6047 28.693 69.0741 27.608C70.3836 27.0094 70.8326 26.5978 71.2067 25.5128C71.4312 24.7645 71.5434 23.6421 71.3938 23.006C71.2441 22.37 71.2815 21.8836 71.4312 21.9958C76.9311 24.6149 77.9413 25.2883 76.6692 25.2883C75.6216 25.2883 73.5264 26.523 73.1523 27.3461C72.9278 27.8325 72.8529 29.4039 72.9652 31.0501C73.1523 33.6317 73.3019 34.0059 74.2373 34.6419C74.8359 35.0909 76.1828 35.5025 77.5298 35.6147C79.3631 35.8392 80.1488 35.727 81.9447 35.0161C84.9752 33.8188 85.4242 33.3324 85.4242 31.3869C85.4242 29.591 85.7235 29.4787 87.3323 30.4141C88.6793 31.1998 88.6793 31.3495 87.4072 32.0978C86.8085 32.4345 85.0875 33.744 83.5535 34.9787C82.0195 36.2133 80.5603 37.2609 80.2984 37.2609C80.0365 37.2609 79.6998 37.4854 79.5501 37.7473C79.4005 38.0092 77.6794 39.4684 75.8087 41.0024C73.9005 42.499 72.3291 43.8459 72.3291 43.9956C72.3291 44.1452 71.8427 44.4819 71.2441 44.7438C70.6455 44.9683 69.8598 45.4921 69.4856 45.9037C68.6625 46.8016 68.0265 46.8016 66.1558 45.9037C65.3326 45.4921 62.3021 44.0704 59.4212 42.7235C56.5402 41.3391 53.4348 39.8425 52.4995 39.3187C51.5641 38.7949 49.8056 37.8596 48.571 37.2235C47.3363 36.5875 45.8397 35.7644 45.2037 35.3528C44.605 34.9787 43.7071 34.4923 43.2581 34.3052C42.8465 34.1181 42.3602 33.744 42.2105 33.5569C42.0982 33.3324 41.6867 33.1454 41.35 33.1454C41.0132 33.1079 39.6663 32.4719 38.3568 31.6862L35.9623 30.227L38.3942 30.4141C40.4146 30.6012 41.1255 30.4889 42.5098 29.8155C44.5302 28.8427 45.0166 27.8325 45.0166 24.7271C45.0166 22.4448 44.9792 22.2952 43.7071 21.3598C42.9962 20.7986 41.7241 20.2748 40.8262 20.1625C39.9282 20.0503 39.0677 19.8258 38.8432 19.6761C38.3568 19.2646 35.7004 19.7884 34.6153 20.4618C34.1664 20.7237 33.5303 21.5095 33.231 22.1455C32.5576 23.6047 32.4827 27.9447 33.1562 28.6182C33.6426 29.1046 27.0576 26.1863 26.5338 25.625C26.3093 25.438 25.7855 25.2883 25.3366 25.2883C24.5509 25.2883 21.6325 23.8291 21.8944 23.6047C21.9693 23.5298 22.6801 23.6047 23.5033 23.7543C25.5236 24.091 28.5168 23.3053 29.527 22.1455C30.4998 21.0605 30.9861 17.9551 30.4249 16.4585C29.3773 13.5402 28.0304 12.5674 25.1121 12.5674C23.6155 12.53 23.5407 12.4926 24.2141 12.0062C24.6257 11.7069 25.374 11.0708 25.8978 10.5844C26.8706 9.7239 29.4147 8.07765 29.7515 8.07765C29.8637 8.07765 30.0508 9.05043 30.2004 10.2851C30.3875 11.8191 30.6868 12.6796 31.2855 13.2409C33.2684 15.1116 36.8228 15.3361 40.1901 13.8395C42.622 12.7171 42.9588 12.1932 42.6969 9.49941L42.5846 7.89058L45.0914 9.12526C46.5132 9.79872 47.6356 10.4722 47.6356 10.6967ZM41.2751 10.7341C41.2751 11.7069 41.0506 11.9688 39.5166 12.6796C37.1595 13.7272 34.2038 13.6524 32.6698 12.5674C31.3603 11.632 31.061 10.3974 32.2957 11.0708C34.3909 12.1932 38.4316 11.8191 40.2275 10.3225C41.3125 9.38716 41.2751 9.38716 41.2751 10.7341ZM53.6219 12.9041C55.2307 13.6524 55.7171 14.1014 55.7919 14.8123C55.9416 16.5707 55.4552 16.8326 51.4893 16.9823C48.1594 17.132 47.7104 17.0571 46.8125 16.3088C46.2138 15.8599 45.7649 15.1864 45.7649 14.8123C45.7649 14.0266 48.571 11.6694 49.0948 11.9688C49.2818 12.1184 49.5811 12.0436 49.6934 11.8191C49.9927 11.3327 50.8907 11.5946 53.6219 12.9041ZM27.0202 14.064C27.2073 14.064 27.8059 14.5129 28.3671 15.0367C29.0655 15.6853 29.2027 16.4211 28.7787 17.2442C27.9556 18.7782 25.9726 19.4142 23.2413 19.0775C20.8842 18.7782 20.0985 18.4415 19.5373 17.3564C19.1632 16.683 19.2754 16.4211 20.2108 15.598C20.8094 15.0742 21.5203 14.5504 21.8196 14.4755C23.4658 14.1014 25.8229 13.8021 26.2345 13.9143C26.5338 13.9891 26.8706 14.064 27.0202 14.064ZM18.153 19.302C18.2652 21.3972 18.2278 21.5095 17.5169 21.3224C17.1054 21.1727 16.4319 20.7612 15.9829 20.387C15.5714 19.9755 15.085 19.7884 14.9727 19.938C14.8231 20.0503 14.7109 19.9006 14.7109 19.5639C14.7109 19.2646 15.0102 18.8904 15.4217 18.7408C15.7959 18.6285 16.3945 18.217 16.7686 17.8054C17.1428 17.3939 17.5918 17.0571 17.7414 17.0571C17.8911 17.0571 18.0781 18.0673 18.153 19.302ZM47.8227 17.9925C48.6458 18.217 50.7036 18.2918 52.3872 18.1796C55.0811 18.0299 55.3804 18.0673 55.1185 18.5911C54.6695 19.4142 52.275 20.2748 49.9927 20.387C47.1866 20.5367 45.3907 19.4517 45.3907 17.5809C45.3907 17.2068 45.5778 17.132 45.8771 17.319C46.1016 17.4687 46.9995 17.768 47.8227 17.9925ZM28.7787 20.5741C28.442 21.921 25.5236 22.819 23.2039 22.2952C20.6972 21.7339 19.5747 21.1353 19.5747 20.3496C19.5747 19.7884 19.7618 19.7136 20.6223 19.938C22.2686 20.4244 27.6937 20.3122 28.2175 19.7884C28.8535 19.1523 29.078 19.4517 28.7787 20.5741ZM42.9588 22.4448C44.1935 23.4176 44.2683 23.5673 43.7819 24.2781C43.1084 25.2883 41.2003 25.9618 38.9554 25.9992C37.9827 26.0366 37.0847 26.2237 36.9725 26.4107C36.6731 26.8971 38.3194 27.5332 38.9928 27.159C39.2922 27.0094 39.816 26.972 40.1527 27.0468C40.5268 27.159 41.4248 27.0468 42.1731 26.8597C43.8941 26.3733 44.0438 27.1216 42.435 28.2441C40.9384 29.3291 37.7582 29.2917 35.4759 28.2066C33.8671 27.4209 33.3807 26.7101 34.129 26.2237C34.316 26.1114 34.5779 26.1863 34.7276 26.4107C35.0269 26.8971 36.4112 26.8971 36.4112 26.4482C36.4112 26.2237 35.9249 25.7747 35.2888 25.438C34.0167 24.6897 33.7174 23.5298 34.5405 22.5945C35.4385 21.5843 36.7854 21.2475 39.2922 21.3598C41.1629 21.3972 41.8738 21.6217 42.9588 22.4448ZM16.2074 24.0162C17.5544 24.7645 24.0271 28.0944 30.612 31.4243C51.0777 41.8255 57.8497 45.3051 60.1694 46.7268C61.4041 47.4751 62.6388 48.1111 62.9007 48.1111C63.1626 48.1111 63.9857 48.4853 64.7714 48.9343C65.5571 49.4207 66.4925 49.9819 66.904 50.2064C67.353 50.4683 67.6523 51.0669 67.6897 51.9648C67.7646 52.7131 67.9891 54.5838 68.1761 56.1553C68.6251 59.2981 68.6999 62.3286 68.3632 62.3286C68.0265 62.3286 62.8633 60.0089 58.1116 57.7267C55.7545 56.6042 52.9859 55.3695 51.9383 54.9954C50.9281 54.6213 47.4859 53.0124 44.3431 51.4036C41.2377 49.7948 38.4316 48.4853 38.1323 48.4853C37.8704 48.4853 37.4214 48.2234 37.1595 47.9615C36.9351 47.6622 35.9249 47.1384 34.9147 46.8016C33.9045 46.4649 33.0439 46.0908 32.9691 45.9411C32.8943 45.7914 31.5848 44.9309 30.0508 44.033C28.5168 43.1724 26.9828 42.2745 26.6835 42.0874C26.3842 41.9003 25.6359 41.4888 24.9998 41.2269C23.9522 40.7031 21.0339 39.1317 16.8809 36.7746C15.9081 36.2133 14.8605 35.7644 14.5612 35.7644C14.2245 35.7644 13.9626 35.4651 13.9626 35.0909C13.9626 34.7542 13.8503 33.2576 13.7381 31.8358C13.3639 26.7849 13.2891 22.6693 13.5136 22.6693C13.6632 22.6693 14.8605 23.3053 16.2074 24.0162ZM61.8905 25.1761C63.1626 25.5502 68.2136 25.4754 69.336 25.1387L70.2713 24.8019L69.5231 25.5876C68.4755 26.7101 64.734 27.4958 62.6014 27.0468C60.5062 26.6352 59.9824 26.2237 59.9824 25.0264C59.9824 24.2407 60.0946 24.1659 60.5062 24.5026C60.8055 24.7645 61.4415 25.0638 61.8905 25.1761ZM83.3664 28.693C84.3766 30.3019 80.4107 31.6862 77.006 30.9005C74.7985 30.4141 74.1999 29.9651 74.1999 28.8427C74.1999 27.8699 76.1828 26.4107 77.5298 26.4107C77.9413 26.4107 78.3155 26.2611 78.3155 26.074C78.3155 25.6999 83.0297 28.1318 83.3664 28.693ZM83.9276 32.1726C83.9276 32.846 80.0739 34.2678 78.2032 34.2678C76.3325 34.2678 74.7985 33.5569 74.6488 32.659C74.5366 32.0603 74.6863 32.0229 75.9583 32.2474C77.8291 32.659 81.2712 32.5467 82.4311 32.0603C83.7031 31.5739 83.9276 31.5739 83.9276 32.1726ZM89.8391 39.0568C89.9139 41.6759 89.9888 44.7064 90.0262 45.8289L90.101 47.8867L86.5466 50.2064C84.6011 51.5159 81.159 54.06 78.9141 55.8559C73.7883 60.0089 71.5809 61.4307 71.5434 60.645C71.506 60.3457 71.4686 59.6348 71.4312 59.0362C71.2815 56.9784 70.3836 49.4206 70.2713 49.2336C70.0469 48.8594 70.5707 48.3356 72.3291 47.1758C73.9006 46.1282 77.5298 43.3595 77.9413 42.8357C78.0536 42.7235 78.9889 41.9752 79.9991 41.2269C81.0467 40.4412 82.2814 39.5058 82.8052 39.0943C84.414 37.8222 89.3527 34.2678 89.5398 34.2678C89.652 34.2678 89.7643 36.4004 89.8391 39.0568Z" fill="#474747"/>
<path fill-rule="evenodd" clip-rule="evenodd" d="M49.8411 27.2341C49.0554 27.4212 48.0452 28.0198 47.5962 28.5436C46.7731 29.3668 46.6982 29.7783 46.8105 32.3225C46.8853 34.7919 47.035 35.3157 47.7459 35.8769C50.2526 37.8973 52.7594 38.2714 56.3138 37.1116C58.8954 36.2884 59.4566 35.6898 59.7185 33.632C59.9804 31.5742 59.1573 29.3293 57.6981 27.9076C56.5757 26.86 56.3138 26.7852 53.8444 26.8226C52.3852 26.86 50.5894 27.0097 49.8411 27.2341ZM56.0893 28.5062C57.2491 28.7307 58.2219 30.3395 57.7729 31.2375C56.7253 33.183 48.7935 33.2204 48.1948 31.2749C47.4465 28.9178 51.3376 27.5335 56.0893 28.5062ZM58.1097 34.6048C57.8852 35.0538 57.3614 35.3905 56.9498 35.3905C56.5383 35.3905 55.6777 35.6524 55.0417 35.9891C52.8716 37.1116 48.3819 35.7646 48.3819 34.0436C48.3819 33.2953 48.4941 33.183 49.0554 33.4449C50.4397 34.1558 54.705 34.1558 56.8002 33.4449C58.4838 32.8837 58.858 33.2204 58.1097 34.6048Z" fill="#474747"/>
<path fill-rule="evenodd" clip-rule="evenodd" d="M64.7692 34.4175C63.7964 34.6794 62.7862 35.0909 62.4495 35.3528C61.327 36.2882 60.8032 38.1215 60.9903 40.5535C61.1774 42.8732 61.2148 42.9106 62.7488 43.6963C63.9086 44.2949 64.9937 44.5194 67.0889 44.5194C72.1024 44.5568 73.9731 42.8732 73.4493 38.8324C73.1874 36.8868 72.1398 35.5025 70.1194 34.5297C68.6229 33.7814 67.2011 33.744 64.7692 34.4175ZM70.3813 36.2134C71.7657 36.7372 72.2521 37.897 71.5786 39.1317C71.0174 40.2167 69.7079 40.6283 67.0515 40.6283C64.0583 40.6283 62.225 39.6181 62.225 38.0467C62.225 37.5977 63.8338 35.8766 64.4699 35.6147C65.2556 35.3154 68.8848 35.6896 70.3813 36.2134ZM72.2147 41.2269C72.2147 42.05 69.5208 43.2473 67.5753 43.2473C65.2181 43.2473 62.674 42.4616 62.4869 41.6759C62.3372 41.1271 62.8361 41.0897 63.9835 41.5636C66.0413 42.4242 71.167 42.0874 71.5038 41.0398C71.7283 40.4038 72.2147 40.5535 72.2147 41.2269Z" fill="#474747"/>
</svg>
