<svg width="105" height="68" viewBox="0 0 105 68" fill="none" xmlns="http://www.w3.org/2000/svg">
<path fill-rule="evenodd" clip-rule="evenodd" d="M43.8177 0.889177C42.9265 1.35826 41.3785 2.62479 40.3934 3.70369C39.033 5.25167 38.2825 5.67384 36.8753 5.76766C32.6066 6.09602 29.3699 11.1152 31.1993 14.5395C31.6215 15.2901 31.4808 15.5246 30.4019 15.9937C27.9157 17.0726 26.0394 18.8551 25.1012 20.966C24.0223 23.3583 23.9285 24.7187 24.726 26.4543C25.195 27.4394 25.1012 28.0023 24.1631 29.8786C22.8496 32.4586 22.7558 35.836 23.8816 37.5716C24.5852 38.6036 24.5383 38.885 23.694 41.3243C22.8027 43.8573 22.8027 44.0919 23.5063 46.4842C24.0692 48.2198 24.8667 49.5333 26.2739 50.8467C27.8219 52.3478 28.3379 53.1921 28.5725 54.8808C29.0415 57.9768 32.7473 61.8702 35.2804 61.8702C35.7494 61.8702 36.8753 62.6676 37.7665 63.6058C38.6578 64.544 40.3465 65.7167 41.4723 66.1858C43.3017 67.0301 43.7239 67.077 45.6941 66.5141C48.1802 65.8574 51.2762 64.028 51.6983 63.0429C52.0736 61.964 52.7772 62.1986 54.419 63.8873C58.1717 67.7807 65.8178 66.8894 69.7581 62.1047C70.6963 60.9789 71.5406 60.5099 72.9948 60.3222C76.3722 59.8531 78.5769 56.8041 78.5769 52.5823C78.5769 51.6442 79.046 50.3776 79.7027 49.5333C82.1888 46.2028 82.6579 42.5439 80.9692 39.4479C80.5939 38.6974 80.5471 38.1345 80.9223 37.5247C81.7667 35.9298 81.4852 31.1921 80.4063 28.7059C79.8434 27.4394 79.4212 25.6569 79.4682 24.6249C79.6089 21.9042 77.498 18.0108 75.0118 16.2282C73.417 15.1024 72.9479 14.4926 72.9479 13.5076C72.9479 12.8039 72.7602 12.0534 72.4788 11.9127C72.2443 11.7719 72.0097 11.0683 72.0097 10.3647C72.0097 7.55018 67.4596 4.45422 64.4574 5.25166C63.7069 5.4393 63.3316 5.20476 62.8626 4.03204C62.0651 2.15571 59.4851 0.420092 57.0459 0.0917325C55.4979 -0.14281 54.7474 0.044824 53.2463 1.07681L51.4169 2.29643L50.1504 1.12372C48.6493 -0.283535 46.3039 -0.377352 43.8177 0.889177ZM48.7431 4.21968C49.4467 4.54804 50.0096 5.29857 50.1973 6.23674C50.6664 8.15999 51.0416 18.7144 50.6664 18.7144C50.4787 18.7144 49.6344 18.1515 48.79 17.4948C47.8988 16.8381 46.3977 16.0875 45.5064 15.8999C44.0054 15.5715 43.7708 15.6184 43.4424 16.5097C43.0203 17.6355 43.7708 18.5737 45.9286 19.6526C46.6791 20.0278 47.7111 21.0129 48.1802 21.8573C48.6962 22.7016 49.4936 23.4991 49.9627 23.6398C51.0416 23.9681 51.2762 28.6121 51.0885 45.8275C50.9478 57.2263 50.854 58.7273 50.1034 59.7124C48.79 61.4011 46.3977 62.8084 44.193 63.0898C42.2228 63.3713 42.0821 63.2775 40.6748 61.4949C39.8305 60.463 39.1738 59.431 39.1738 59.1495C39.1738 58.4928 36.7814 57.9768 36.2654 58.4928C35.468 59.2902 33.1695 57.5546 32.372 55.5376C31.4339 53.0045 31.4339 52.9576 33.1226 52.9576C33.92 52.9576 35.1396 52.6292 35.8902 52.2071C37.1098 51.4565 37.2505 51.4565 39.6898 52.77C41.7537 53.8958 42.3166 54.5056 42.9265 56.1474C43.3486 57.2263 44.0523 58.4928 44.4744 58.915C45.225 59.6655 45.3188 59.6655 46.0693 58.915C47.1482 57.883 46.9137 55.1154 45.6471 53.239C44.4744 51.5503 42.4574 49.7209 41.7068 49.674C41.4723 49.674 40.8625 49.3925 40.3934 49.0642C39.5959 48.5013 39.596 48.3606 40.2996 46.6249C41.3316 44.2326 40.9094 42.1686 39.4552 42.1686C38.7985 42.1686 38.1887 42.5908 37.9072 43.2006C37.6727 43.8104 37.016 45.2646 36.4531 46.4842C35.6556 48.2198 35.1396 48.7358 33.7793 49.2049C30.1204 50.4245 27.4466 48.6889 26.8368 44.7486C26.6023 43.1537 26.743 42.497 27.6812 41.1367C29.1354 38.9789 29.1354 38.3691 27.6812 36.1644C26.7899 34.7571 26.6023 34.0535 26.8368 32.6462C26.9776 31.6611 27.2121 30.9575 27.3997 31.0513C29.4168 32.1771 31.6215 32.8339 32.9819 32.6931C34.4829 32.5524 34.7175 32.3648 34.8582 31.2859C34.9989 30.0193 34.9051 29.9255 32.0906 29.3157C31.387 29.175 30.1673 28.4245 29.3699 27.6739C28.2441 26.6419 27.9157 25.8914 27.9157 24.578C27.9157 22.1856 28.9946 20.3562 30.8241 19.6995C35.4211 18.0108 35.9371 17.2602 34.7644 14.0705C33.7324 11.1621 34.2015 10.1301 36.8284 9.42652C38.564 9.00434 38.8454 9.05125 40.8156 10.5523C42.5512 11.9127 43.0672 12.1003 43.8646 11.6781C45.1312 10.9745 45.0373 9.52034 43.6301 8.11308C42.2228 6.70583 42.1759 6.61201 43.7239 5.01712C45.0842 3.60987 46.7729 3.32842 48.7431 4.21968ZM58.9691 4.50113C59.9542 5.39239 60.048 7.36255 59.1099 8.58217C58.6408 9.19198 58.5939 9.70797 58.9222 10.3178C59.532 11.4905 60.4702 11.4436 62.5342 10.0363C64.5982 8.62908 66.3338 8.53526 67.9287 9.80179C69.6174 11.1621 69.8519 12.2879 68.9137 14.821L68.0694 16.9788L69.1952 17.87C69.805 18.386 70.6963 18.6675 71.2123 18.5268C72.1504 18.2922 74.1675 20.1217 75.2933 22.2794C76.4191 24.2965 75.2464 26.6419 72.2911 28.5652C70.8839 29.4564 69.7581 30.3946 69.805 30.6761C69.8519 30.9106 69.6174 31.0982 69.3359 31.0044C68.4447 30.8637 68.5854 31.5673 69.6174 32.1771C70.837 32.9277 73.5108 32.224 75.3871 30.6761L76.8882 29.4095L77.5449 30.6761C78.3423 32.1771 77.9671 35.6953 76.9351 36.5396C75.8562 37.4309 76.0907 39.5887 77.4042 41.1836C78.3424 42.2625 78.53 42.8723 78.2954 43.9043C77.3573 47.8446 75.0118 49.4864 71.1184 49.0173C68.4447 48.642 67.4596 49.158 68.2101 50.5183C68.9137 51.8787 71.4937 53.0514 72.9948 52.723C74.4958 52.3947 74.9649 52.9576 74.5428 54.6463C74.2144 55.9597 72.0097 57.1794 69.9457 57.1794C69.1483 57.1794 68.4916 57.6015 67.9287 58.4459C65.3018 62.7146 60.4702 63.9811 56.7645 61.4011L54.7005 59.947L54.6536 45.5461C54.6536 37.6185 54.5597 28.143 54.4659 24.4372L54.2783 17.7293L55.6856 17.0257C56.7644 16.4628 57.0459 16.0406 56.9052 15.0555C56.8114 14.1643 56.4361 13.7421 55.7325 13.6483C54.935 13.5076 54.6067 13.0854 54.419 11.8658C54.2783 10.9745 54.0907 9.52034 53.9499 8.67598C53.8092 7.73781 53.9969 6.33056 54.3721 5.39239C54.9819 3.93823 55.3103 3.70369 56.5768 3.70369C57.4212 3.70369 58.5001 4.03204 58.9691 4.50113Z" fill="#474747"/>
<path fill-rule="evenodd" clip-rule="evenodd" d="M39.0809 22.514C37.9082 23.1707 38.002 23.6398 39.9721 25.7507C42.4114 28.5183 42.6459 31.2389 40.5819 34.288C39.6438 35.6953 38.7056 36.5865 38.0958 36.6334C37.0638 36.6803 35.0467 36.9149 33.4518 37.0556C32.5606 37.1494 32.2791 37.9469 33.0766 37.9469C33.358 37.9469 33.5457 38.2752 33.4518 38.7443C33.2642 39.6825 35.5627 40.433 37.5329 40.0108C39.3623 39.6356 42.1299 38.2283 42.9274 37.2432C43.4903 36.5865 43.5841 36.5865 44.3346 37.2432C44.7568 37.6654 45.5073 38.7912 45.9764 39.8232C46.4455 40.8552 47.1022 41.6995 47.4306 41.6995C47.9466 41.6995 49.4946 40.4799 49.4946 40.1047C49.4946 39.401 48.3687 37.0087 48.0404 37.0087C47.8058 37.0087 47.6182 36.5865 47.6182 36.0705C47.6182 35.5545 47.1022 34.804 46.4455 34.3818C45.3666 33.6782 45.2728 33.3498 45.2728 30.1601C45.2728 26.9703 45.2259 26.595 43.5372 24.7187C40.9103 21.7634 40.6288 21.6227 39.0809 22.514Z" fill="#474747"/>
<path fill-rule="evenodd" clip-rule="evenodd" d="M60.4225 16.6504C60.2818 17.0257 60.2818 18.5268 60.4225 19.934C60.6571 22.1387 60.5632 22.514 59.7189 22.9831C57.2327 24.3434 56.2008 30.6761 57.9364 34.3349C59.4374 37.5247 64.4097 40.0109 65.817 38.2752C66.6613 37.2902 65.7701 35.1324 64.5036 35.1324C62.9556 35.1324 60.7509 32.787 60.4225 30.723C60.188 29.3157 60.3756 28.4245 61.2669 26.8765C62.5334 24.578 62.8618 24.4372 64.5036 25.7507C65.8639 26.8296 69.4759 26.9703 70.7424 26.0321C72.5249 24.6718 70.8362 21.8104 68.8191 22.8893C67.8341 23.4053 65.6763 23.0769 65.0195 22.2795C64.7381 21.9511 64.2221 20.5907 63.8937 19.2304C63.2839 16.8381 62.5803 15.8999 61.3138 15.8999C60.9854 15.8999 60.6102 16.2283 60.4225 16.6504Z" fill="#474747"/>
<path fill-rule="evenodd" clip-rule="evenodd" d="M57.5613 41.7933C56.6701 42.6845 56.9046 45.1707 57.9366 46.531C58.6402 47.4223 58.8748 48.4074 58.8748 50.7059C58.8748 53.2389 59.1093 54.0833 60.282 55.9127C61.7362 58.2581 62.2991 58.5396 63.378 57.4607C64.1754 56.6163 64.2223 55.6782 63.4718 54.9276C63.1903 54.6462 62.8151 53.3797 62.5805 52.16C62.2991 50.2368 62.3929 49.6739 63.378 48.1728C64.6445 46.1558 66.3801 45.5459 68.3972 46.2965C71.071 47.2816 72.8066 44.8892 70.5081 43.3882C68.0219 41.7933 64.3161 42.0278 62.0645 43.9511C61.1264 44.7485 60.282 44.3263 60.282 43.0598C60.282 42.5907 59.9537 42.1685 59.5784 42.1685C59.2031 42.1685 58.8748 41.934 58.8748 41.6994C58.8748 41.0427 58.2649 41.0896 57.5613 41.7933Z" fill="#474747"/>
</svg>
