<svg width="126" height="127" viewBox="0 0 126 127" fill="none" xmlns="http://www.w3.org/2000/svg">
<rect width="126" height="127" rx="15" fill="#FCF5C2"/>
<path fill-rule="evenodd" clip-rule="evenodd" d="M61.7225 31.5439C61.3242 31.8322 60.7362 32.3318 60.4138 32.6393C59.693 33.331 57.2463 35.464 56.0325 36.4633C55.5204 36.8668 54.2875 38.0198 53.2823 39.019C51.9167 40.345 51.4046 40.9983 51.2339 41.5748C50.7976 43.0352 51.2528 43.7654 52.8271 44.1305C54.0979 44.438 54.3634 44.6686 55.0462 46.1482C56.5635 49.415 56.6584 50.7409 55.5583 53.0468C54.591 55.103 53.5858 56.1406 51.9357 56.7556C50.7408 57.2168 48.5216 57.2744 47.8009 56.8901C46.4163 56.1406 44.7662 54.6802 44.7662 54.219C44.7662 54.1037 44.3869 53.4312 43.9507 52.7394C43.3058 51.7401 42.9834 51.4135 42.4713 51.2597C41.4281 50.9331 40.5177 51.3174 39.19 52.6241C38.5452 53.239 37.7106 54.0269 37.3313 54.3728C36.952 54.6994 36.5347 55.1414 36.4019 55.3336C36.2502 55.5257 35.4536 56.2559 34.6191 56.9669C32.5707 58.6964 30.4085 60.9447 30.1809 61.598C29.5739 63.2122 30.5223 65.1915 32.6086 66.6903C33.0828 67.0362 33.5949 67.459 33.7276 67.6511C33.9742 67.997 36.4209 70.6296 38.2227 72.4936C38.9435 73.243 39.3038 73.8195 39.4745 74.4344C39.8159 75.7411 39.6263 76.1831 38.5072 76.7212C36.1554 77.8357 34.9225 80.0263 34.7518 83.37C34.6001 86.6944 35.1881 87.9242 37.6917 89.5191C39.5883 90.7298 42.623 91.2486 44.4059 90.6529C46.5112 89.9419 47.7061 89.0003 48.4837 87.4438C49.2234 85.9449 49.5458 85.8296 50.4752 86.6559C51.4615 87.5399 52.5995 88.8081 53.1685 89.6536C53.453 90.0956 54.022 90.8066 54.4203 91.2294C54.7996 91.6521 55.4635 92.4976 55.8807 93.1318C56.279 93.7467 56.9239 94.4961 57.2843 94.7844C57.9102 95.284 59.9017 96.3217 60.2431 96.3217C60.3189 96.3217 60.5276 96.437 60.6793 96.5907C60.85 96.7252 61.2862 96.8981 61.6466 96.975C62.538 97.1287 63.2398 96.6291 66.0089 93.9004C67.2038 92.7282 69.1005 90.9027 70.2006 89.865C73.368 86.8865 74.3543 85.6567 74.3543 84.6767C74.3543 84.1963 73.4628 83.5237 72.2679 83.0817C70.1057 82.2746 69.1953 80.7181 69.1764 77.7973C69.1384 74.9341 70.0299 73.1085 72.0214 71.8787C73.3301 71.0716 75.056 70.7257 76.5923 70.9755C78.1476 71.2253 80.1581 73.0509 81.2202 75.1839C81.7702 76.2792 81.922 76.4521 82.5479 76.6059C83.5531 76.8557 83.8566 76.6635 86.8723 73.6466C88.3137 72.2246 90.0966 70.4951 90.8553 69.8033C91.6139 69.1116 92.5054 68.1123 92.8468 67.5935C93.1692 67.0554 93.7572 66.3252 94.1365 65.9601C95.3124 64.8071 95.2935 63.6349 94.0417 62.1745C93.6244 61.6749 93.0933 60.9639 92.8468 60.5988C92.1829 59.5419 87.6309 54.9877 85.6963 53.4119C84.9946 52.8547 84.7859 52.5472 84.7859 52.1437C84.7859 51.5288 85.0515 51.2597 86.5309 50.4142C87.612 49.7993 89.6793 47.7432 90.1725 46.7824C90.3242 46.4941 90.5328 45.418 90.6656 44.3996C90.9691 41.9783 90.7794 41.1905 89.4138 39.1343C88.5413 37.8084 88.2379 37.4817 87.3844 37.0974C85.6394 36.2519 85.0325 36.1174 83.2876 36.2327C80.1581 36.4056 78.1666 37.4433 76.7251 39.6339C75.3405 41.7285 74.7336 41.6517 72.4386 39.019C71.661 38.1543 70.3144 36.6747 69.4229 35.7523C68.5315 34.8299 67.3935 33.5809 66.9004 33.0044C66.3883 32.4279 65.7434 31.8898 65.4779 31.813C65.1934 31.7553 64.6623 31.5439 64.3019 31.3326C63.3536 30.8329 62.5949 30.8906 61.7225 31.5439ZM64.5675 32.9852C65.0037 33.235 65.8003 33.9652 66.3503 34.6185C66.9004 35.2527 67.8297 36.2711 68.4367 36.886C69.0246 37.501 70.0109 38.5963 70.6368 39.3073C71.2437 40.0375 72.249 41.0559 72.8749 41.5748C73.8801 42.4203 74.0887 42.5164 74.9422 42.5164C76.213 42.5164 76.8389 42.1513 77.6355 40.9407C79.058 38.7692 80.2719 38.0198 83.1169 37.6163C84.729 37.4049 87.1757 38.3273 87.8585 39.4034C89.2431 41.594 89.4328 42.2858 89.1483 44.2074C89.0155 45.0913 88.731 46.0137 88.4655 46.4941C87.8965 47.4934 86.3791 48.8385 84.9756 49.5879C83.7048 50.2797 83.2117 51.0484 83.2307 52.2974C83.2307 53.1237 83.3065 53.239 84.2359 54.0461C85.6774 55.2951 91.6139 61.329 91.6139 61.5596C91.6139 61.6557 91.9364 62.0977 92.3536 62.5588C93.4347 63.7695 93.5865 64.1346 93.2071 64.7111C93.0364 64.9801 92.8278 65.1915 92.733 65.1915C92.6381 65.1915 92.2588 65.6719 91.8795 66.2676C91.5001 66.8633 90.5897 67.9394 89.8311 68.6312C89.0914 69.3422 87.9723 70.399 87.3464 70.9947C86.7205 71.5904 85.5067 72.7818 84.6532 73.6274C83.7807 74.4921 83.022 75.1839 82.9272 75.1839C82.8324 75.1839 82.5289 74.6842 82.2444 74.0693C81.6375 72.7818 81.2961 72.3783 79.6649 70.9563C78.0907 69.5727 77.37 69.3614 74.9802 69.4574C73.2732 69.5151 72.9697 69.592 71.8127 70.1877C70.4471 70.8987 69.1005 72.2246 68.4746 73.4352C68.2849 73.8195 68.0004 74.838 67.8297 75.7027C67.5642 76.9902 67.5452 77.5475 67.697 78.6812C67.9815 80.6413 68.5125 82.2362 69.1005 82.8703C69.6695 83.4852 70.9782 84.2539 71.9834 84.5998C72.3438 84.7151 72.6473 84.9265 72.6473 85.0418C72.6473 85.3492 71.2248 86.8289 69.0057 88.885C68.0004 89.8074 66.0848 91.6329 64.7571 92.9588C61.969 95.6875 61.8552 95.726 60.1482 94.7651C58.3085 93.7275 57.6446 93.1894 57.2653 92.4976C56.6394 91.3255 52.903 86.8673 51.3477 85.4069C50.5701 84.6959 50.3614 84.5998 49.5648 84.5998C49.0527 84.5998 48.5406 84.6766 48.4268 84.7535C48.294 84.8496 47.8199 85.599 47.3836 86.4445C46.587 87.9242 46.5301 87.9818 45.1456 88.6736C42.8316 89.8458 40.8022 89.6344 38.2417 87.9626C36.4209 86.7904 36.2312 86.3869 36.2312 83.908C36.2312 80.8142 37.1606 79.104 39.4745 77.9126C40.1194 77.5859 40.5936 77.1823 40.7832 76.8172C41.1436 76.087 41.1057 74.2999 40.7074 73.5505C40.5367 73.2238 40.4039 72.8971 40.4039 72.8011C40.4039 72.6858 40.0056 72.2054 39.5125 71.725C39.0004 71.2253 38.052 70.2069 37.3692 69.4382C35.5105 67.3437 34.5242 66.3444 33.2345 65.2299C32.0965 64.2307 31.4896 63.2698 31.4896 62.4628C31.4896 62.04 31.7172 61.7902 35.3777 58.3697C36.7244 57.1014 38.5452 55.3528 39.4366 54.4688C41.3712 52.5472 41.7316 52.4127 42.5092 53.2967C42.8127 53.6618 43.192 54.1806 43.3437 54.4688C43.5144 54.7763 43.7231 55.0069 43.8179 55.0069C43.9317 55.0069 44.0076 55.1414 44.0076 55.2951C44.0076 55.7755 45.4301 57.063 46.6439 57.6972C48.294 58.5811 50.9494 58.8693 51.3287 58.2352C51.3856 58.1391 51.5942 58.1199 51.8029 58.1776C52.2012 58.3121 53.9082 57.5434 53.7565 57.2936C53.7185 57.2168 53.8323 57.1014 54.041 57.0246C54.5151 56.8901 55.7669 55.5834 55.7669 55.2567C55.7669 55.1222 55.8428 55.0069 55.9376 55.0069C56.2032 55.0069 56.8291 53.8731 57.2653 52.5857C57.7395 51.2021 57.7015 48.5887 57.2084 47.8585C57.0377 47.6279 56.9049 47.2628 56.9049 47.0514C56.9049 46.6479 55.6342 44.2458 55.4255 44.2458C55.3497 44.2458 54.9703 43.9576 54.591 43.5925C54.1927 43.2274 53.5858 42.8238 53.2064 42.6893C52.8081 42.5356 52.5426 42.305 52.5426 42.1128C52.5426 41.7285 55.16 39.1151 57.6636 37.0013C58.6499 36.1558 60.0534 34.8876 60.7741 34.1766C61.5138 33.4656 62.2346 32.8122 62.3863 32.7161C62.9174 32.4087 63.7709 32.5048 64.5675 32.9852Z" fill="#474747" stroke="#474747" stroke-miterlimit="10"/>
</svg>
