<svg width="126" height="127" viewBox="0 0 126 127" fill="none" xmlns="http://www.w3.org/2000/svg">
<rect width="126" height="127" rx="15" fill="#FCF5C2"/>
<path fill-rule="evenodd" clip-rule="evenodd" d="M57.2928 29.4987C55.1708 30.6413 53.9629 33.1878 54.4852 35.473C54.8117 36.8769 57.097 39.4233 59.774 41.3821C60.8187 42.1657 61.7002 42.9165 61.7002 43.0471C61.7002 43.243 58.4681 45.8221 55.8564 47.7483C55.334 48.1074 54.1261 49.0868 53.1793 49.8703C52.1999 50.6865 51.0246 51.6333 50.5676 51.9924C48.6741 53.4288 42.0794 58.4238 39.1085 60.6438C37.3782 61.9823 35.648 63.2882 35.2562 63.5494C34.8644 63.8105 33.5259 64.8226 32.2853 65.7694C29.9674 67.5649 29.4777 68.5443 30.5224 69.4258C31.0774 69.8829 31.5345 69.6217 34.9624 67.0426C36.7906 65.7041 37.0518 65.5735 37.2477 66.0958C37.3783 66.3896 37.5741 69.5237 37.7047 73.017C37.8353 76.5102 38.0312 80.8522 38.1291 82.6478C38.2597 84.4434 38.2597 87.6101 38.1291 89.6669C37.9006 93.258 37.9332 93.4539 38.5862 94.0089C39.1412 94.466 39.7941 94.5639 41.7529 94.5313C43.1241 94.4986 44.887 94.5966 45.7032 94.6945C46.7153 94.8577 47.8579 94.7271 49.327 94.3027C51.2532 93.7804 51.6123 93.7477 52.3958 94.1395C53.1467 94.5313 53.3426 94.5313 53.9955 94.1069C54.6811 93.6824 54.7464 93.2907 54.9749 89.9281C55.1382 86.8919 55.6932 82.1254 56.2808 78.6975C56.7052 76.2817 59.4149 73.1149 61.3411 72.8211C63.1366 72.5273 63.9528 72.8211 65.3566 74.1596C67.6746 76.4122 68.1643 77.7508 68.4907 82.5825C68.6213 84.9657 68.654 88.4263 68.5234 90.3198C68.1643 95.3148 67.6093 95.021 77.0116 94.7924C82.7574 94.6618 84.7489 94.4986 85.0427 94.1721C85.2386 93.9436 85.5977 92.7683 85.8262 91.5277C86.2833 88.7854 86.9362 80.591 86.7077 80.0034C86.6098 79.7749 86.7403 77.9793 87.0015 76.0531C87.2627 74.127 87.4912 71.2867 87.5239 69.7523C87.5456 66.8358 88.6556 66.4549 90.8539 68.6096C92.3883 70.144 93.7921 71.3846 93.9553 71.3846C94.445 71.3846 95 70.6011 95 69.9808C95 69.1973 93.1065 67.1079 89.6459 64.1044C88.2095 62.8311 86.1527 60.9703 85.0754 59.9909C82.7248 57.7382 82.8227 57.8362 80.4721 55.7141C79.3948 54.7674 76.7504 52.3188 74.5957 50.2947C70.8413 46.8015 68.9804 45.1692 67.0543 43.8306L66.1728 43.2104L67.6419 41.8718C68.4581 41.121 69.666 39.6518 70.3843 38.6071C71.5595 36.8116 71.6575 36.4851 71.5922 34.5916C71.5595 32.8286 71.429 32.3716 70.5475 31.2616C69.1437 29.4987 67.3807 28.8131 65.3566 29.3028C64.5078 29.5313 63.5937 29.8904 63.3325 30.119C62.9081 30.4781 62.549 30.4128 61.2105 29.7598C59.3822 28.8131 58.6314 28.7804 57.2928 29.4987ZM61.1125 32.3716C62.0593 33.1878 63.659 33.4816 63.659 32.8613C63.659 32.3716 65.4872 31.5554 66.5319 31.5554C68.0337 31.5554 68.7846 32.4369 69.0131 34.4936L69.209 36.2892L66.4993 38.803C65.0302 40.2068 63.7243 41.3495 63.6263 41.3495C63.5284 41.3495 63.1693 41.0883 62.8102 40.7618C62.4837 40.468 61.1125 39.358 59.8393 38.3133C58.5334 37.2686 57.2602 36.028 56.999 35.5383C55.5626 32.7307 58.6967 30.3475 61.1125 32.3716ZM66.2381 46.1159C67.0543 46.6056 68.6213 47.8789 69.7313 48.9889C72.4084 51.6985 76.9136 55.7794 77.893 56.3671C78.3175 56.6282 78.7745 57.1179 78.8725 57.4117C78.9704 57.7382 79.1989 57.9994 79.3948 57.9994C79.5907 57.9994 80.766 59.1094 82.0065 60.4479C83.2798 61.7864 84.5856 62.9617 84.9448 63.0923C85.4345 63.2229 85.5324 63.4841 85.4018 64.137C85.3039 64.6267 85.1406 66.3244 85.0427 67.9567C84.9448 69.5564 84.7162 72.2987 84.553 73.9964C84.3898 75.694 84.1612 79.4158 84.0633 82.256C83.9001 87.2184 83.4757 91.8542 83.1492 92.148C83.0512 92.246 80.211 92.3439 76.8483 92.3766C70.8413 92.4419 70.6781 92.4092 70.7434 91.7889C71.2657 87.251 70.9066 79.6443 70.0251 77.0652C69.4048 75.2369 67.9031 73.2128 65.781 71.3846C64.214 70.0134 64.1487 70.0135 62.2878 70.1767C59.0884 70.4705 56.7052 72.3314 54.8443 75.9552C53.8976 77.8487 52.9182 83.7251 52.657 89.0792C52.5591 90.9401 52.3632 91.9848 52.1346 92.0175C51.9061 92.0175 49.1964 92.0827 46.095 92.1154L40.4471 92.148L40.4797 88.5242C40.4797 86.5654 40.4144 82.9416 40.3165 80.5257C40.2512 78.1099 40.1206 73.2128 40.0553 69.6543L39.8921 63.2229L41.2306 62.3088C41.9488 61.8191 42.8956 61.1008 43.32 60.6764C43.7444 60.2847 44.1688 59.9582 44.2994 59.9582C44.3973 59.9582 45.0503 59.4685 45.8011 58.8809C46.5194 58.3259 47.4661 57.6076 47.8579 57.3465C48.2497 57.0853 49.5229 56.1385 50.6655 55.2571C54.779 52.025 56.7052 50.6212 59.5781 48.5644C61.2105 47.4218 62.8755 46.2139 63.3325 45.8874C64.4099 45.1039 64.5078 45.1365 66.2381 46.1159Z" fill="#474747"/>
</svg>
