<svg width="126" height="127" viewBox="0 0 126 127" fill="none" xmlns="http://www.w3.org/2000/svg">
<rect width="126" height="127" rx="15" fill="#FCF5C2"/>
<path fill-rule="evenodd" clip-rule="evenodd" d="M75.1683 32.2128C73.1709 32.5457 69.7944 34.5193 66.9172 37.0636C65.1814 38.5854 64.3016 39.3225 62.9225 40.3688C62.2091 40.9157 61.4007 41.5577 61.1154 41.8192C60.8538 42.0808 60.3307 42.5088 59.9502 42.7704C57.1682 44.6964 54.3623 47.8113 53.1734 50.2605C52.7692 51.069 52.3412 51.8774 52.1985 52.0439C51.937 52.353 51.1523 55.0875 50.5816 57.7506C49.7494 61.5789 51.5327 67.2144 54.5288 70.2818C55.2421 71.0427 56.1219 71.7085 56.4786 71.7798C57.406 71.9938 59.9027 71.328 60.83 70.6147C61.6622 69.9726 62.1854 68.76 62.1854 67.4759C62.1854 66.7388 61.8049 66.0492 60.7587 64.8841C59.6887 63.719 58.7851 61.1034 58.904 59.534C59.0942 56.8946 59.9502 55.6106 64.8248 50.8074C67.2264 48.4296 69.842 46.0042 70.6504 45.4335C75.5487 41.843 76.1194 41.6052 78.7112 41.7479C81.1128 41.9143 82.4444 42.5088 84.0138 44.1733C85.3691 45.6 85.6545 46.5987 85.4167 49.0954C85.274 50.7361 84.7509 51.5683 82.1591 54.3266C80.9464 55.6344 81.0415 55.5393 78.5923 57.9171C76.0481 60.4138 75.4774 61.4838 75.4774 63.9568C75.4536 65.7163 75.739 66.4772 76.6901 67.143C77.9741 68.0704 79.1392 68.1893 80.9464 67.5948C82.3018 67.143 82.8011 66.7864 84.6558 65.0268C86.4629 63.291 89.1261 60.4138 91.1235 58.0598C92.1935 56.752 93.3824 54.6595 94.072 52.8048C95.356 49.3331 95.3084 44.7202 93.9293 42.2948C93.644 41.7717 93.3111 41.0821 93.216 40.773C92.8355 39.5603 91.385 37.6818 89.7206 36.2076C87.1049 33.9011 86.3916 33.592 81.0891 32.4268C78.8777 31.9275 77.1657 31.8799 75.1683 32.2128ZM80.6135 33.9962C81.3982 34.1864 82.2542 34.448 82.5158 34.5669C82.7773 34.6858 83.7284 34.9949 84.6082 35.2802C86.3678 35.8271 87.5805 36.588 89.4114 38.3714C90.6004 39.5127 90.7668 39.7505 92.1935 42.7704C93.9055 46.4322 93.1922 51.9725 90.4815 55.7533C89.1737 57.5842 86.6769 60.4138 84.3467 62.7203C80.9226 66.073 79.0441 66.9053 77.7125 65.5737C77.1657 65.0268 77.1181 64.8603 77.2608 63.6476C77.5223 61.4125 78.0217 60.6991 81.9451 57.1086C82.8249 56.3002 84.2753 54.6833 85.7258 52.8999C87.4378 50.7836 87.8896 47.7876 86.8672 45.172C86.4629 44.1257 85.9636 43.4599 84.846 42.4375C82.6109 40.3688 81.0653 39.7981 77.879 39.8932C75.7152 39.9408 73.8843 40.7254 71.1973 42.699C66.9172 45.8853 59.6173 53.0188 58.2144 55.4204C57.5011 56.6331 56.8591 59.8907 57.0731 61.1985C57.406 63.1245 58.476 65.3121 59.6649 66.4059C60.5209 67.2144 60.5209 68.5697 59.6649 69.2593C58.904 69.8538 56.6213 69.9489 55.8604 69.4257C55.361 69.0691 53.5063 65.5023 52.7692 63.4574C52.4125 62.5301 52.3412 61.5789 52.3412 59.106C52.3412 57.2275 52.4363 55.8722 52.579 55.777C52.7216 55.6819 53.0783 54.9686 53.3637 54.1839C54.0532 52.4481 55.0757 50.2843 55.4561 49.7849C55.5988 49.5947 56.1219 48.9527 56.5737 48.382C57.0493 47.8113 57.5248 47.2169 57.62 47.0742C57.7151 46.9078 57.9528 46.67 58.1669 46.5511C58.5235 46.3371 60.1642 44.9817 61.7811 43.5313C62.2091 43.1508 63.1841 42.3661 63.9687 41.7479C64.7534 41.1534 65.8234 40.2736 66.3703 39.8219C69.0097 37.5154 72.1009 35.304 73.7178 34.5431C75.5725 33.6633 78.307 33.4493 80.6135 33.9962Z" fill="#474747" stroke="#474747" stroke-miterlimit="10"/>
<path fill-rule="evenodd" clip-rule="evenodd" d="M63.0884 57.6318L62.1373 58.5829L62.2086 60.4376C62.2799 62.0545 62.3988 62.4588 63.0171 63.3623C63.3975 63.933 63.8018 64.4561 63.8731 64.5275C64.2298 64.8366 65.2522 66.9529 65.3949 67.6662C65.6089 68.8076 64.5627 71.6609 63.35 73.2779C62.8031 73.9912 61.1861 75.7032 59.7595 77.1062C58.3328 78.4853 55.8123 80.9582 54.1478 82.5989C51.1993 85.4999 51.0804 85.595 49.1068 86.2846C45.4925 87.5686 42.2825 87.1406 39.6669 85.0481C38.4779 84.097 37.8835 82.5038 37.9073 80.2211C37.9073 78.6993 38.2639 77.8195 39.4529 76.2977C39.8571 75.7746 40.3802 75.085 40.5942 74.7521C41.2362 73.7772 45.3736 69.6398 46.1583 69.1642C47.2046 68.5698 48.5599 66.3584 48.7501 65.003C48.9404 63.6239 48.3935 62.1497 47.3948 61.3174C45.7065 59.8907 42.3776 61.0559 38.1688 64.5275C34.6259 67.476 30.8689 72.3981 30.322 74.871C29.8227 77.0824 29.9178 80.6016 30.5122 82.9556C31.7012 87.4735 32.4383 89.019 34.3405 90.9213C35.9099 92.5144 37.0275 93.1802 40.0711 94.3691C42.116 95.1776 42.544 95.2727 44.5889 95.2727C49.1068 95.2965 53.6484 94.1314 56.0738 92.3242C62.2799 87.6637 69.2232 80.3638 71.1492 76.4166C71.5535 75.5606 72.1479 74.1339 72.4332 73.2303C72.9564 71.6609 72.9564 71.4707 72.6948 68.7362C72.1717 63.4575 71.1968 60.7943 69.033 58.7494C67.3209 57.1087 66.5362 56.6807 65.1809 56.6807C64.1584 56.6807 63.9206 56.7758 63.0884 57.6318ZM66.132 58.7256C67.1069 59.2012 68.6525 60.8181 69.2945 62.0783C70.531 64.5037 71.2681 70.6385 70.6023 72.8736C70.2219 74.0863 68.7001 77.225 68.1532 77.8908C67.8916 78.1762 67.0118 79.2462 66.2034 80.2211C62.5177 84.7152 55.5269 90.8975 52.7924 92.0627C51.4133 92.6571 46.4912 93.5369 44.4701 93.5369C42.9483 93.5369 39.4053 92.348 37.5981 91.2066C36.1239 90.3031 34.6021 88.7575 34.1028 87.7112C32.6998 84.6914 31.9627 81.6954 31.9389 79.0084C31.9152 76.5355 32.3194 74.4906 33.1278 73.0876C35.6483 68.6887 42.2111 62.9581 45.0407 62.6728C46.3961 62.5539 46.729 62.863 46.9192 64.4324L47.0381 65.5024L43.4476 69.0691C39.7857 72.7072 37.6933 75.2039 36.6946 77.1299C36.219 78.0335 36.1477 78.5566 36.1477 80.5778C36.1477 82.5989 36.219 83.0983 36.7897 84.2634C37.6219 85.9041 37.8835 86.237 38.7633 86.7363C39.1675 86.9503 39.9522 87.4021 40.5466 87.735C41.9258 88.4959 43.2098 88.8526 44.7078 88.8764C46.4199 88.8764 48.9879 88.377 50.3908 87.735C51.0566 87.4259 51.8175 87.093 52.0791 87.0217C52.5309 86.879 55.3843 84.1921 57.0725 82.3136C57.4767 81.8856 58.5705 80.8393 59.5217 79.9833C60.4966 79.1273 61.4002 78.2951 61.5428 78.1286C61.7093 77.9384 62.1135 77.5104 62.4464 77.1775C63.5877 76.0124 65.4187 73.7059 65.8467 72.8499C68.0105 68.546 67.7727 66.3584 64.6815 62.4825C64.0871 61.7216 63.9682 61.3888 63.992 60.295C63.992 59.32 64.1109 58.9158 64.4438 58.678C65.0144 58.25 65.1571 58.2738 66.132 58.7256Z" fill="#474747" stroke="#474747" stroke-miterlimit="10"/>
</svg>
