<svg width="126" height="127" viewBox="0 0 126 127" fill="none" xmlns="http://www.w3.org/2000/svg">
<rect width="126" height="127" rx="15" fill="#FCF5C2"/>
<path fill-rule="evenodd" clip-rule="evenodd" d="M62.5306 28.3654C62.4136 28.5606 62.2184 30.1218 62.1013 31.8391C61.9452 34.3371 62.0232 35.0397 62.5306 35.5471C63.3113 36.3277 63.6625 36.3277 64.4432 35.5471C65.3018 34.7274 65.2628 29.3802 64.4041 28.5215C63.7406 27.8971 62.8819 27.819 62.5306 28.3654Z" fill="#474747"/>
<path fill-rule="evenodd" clip-rule="evenodd" d="M40.0891 36.5618C39.6598 37.3814 40.2453 38.3182 43.0945 41.2064L44.0313 42.1822L44.8119 41.4016C45.8267 40.3478 45.3973 39.1768 43.2506 37.2253C41.4162 35.586 40.6746 35.4299 40.0891 36.5618Z" fill="#474747"/>
<path fill-rule="evenodd" clip-rule="evenodd" d="M83.9974 38.2789C82.3581 39.0205 79.7821 41.7916 79.9773 42.6113C80.0163 43.0016 80.4847 43.4309 80.9921 43.6261C81.6946 43.8993 82.202 43.6261 83.9194 42.1429C86.1832 40.1523 86.7686 39.0595 86.1051 38.2789C85.5587 37.6154 85.4806 37.6154 83.9974 38.2789Z" fill="#474747"/>
<path fill-rule="evenodd" clip-rule="evenodd" d="M60.9705 40.3478C57.5358 41.0503 53.4766 42.6896 51.8763 43.9386C47.4659 47.4513 45.5924 49.7541 44.1873 53.462C42.7041 57.4822 43.0554 63.649 45.085 67.5521C46.1388 69.6988 48.4026 72.4309 50.0809 73.6409C53.1253 75.7876 53.6717 77.4659 53.1253 82.696C52.696 87.0674 54.8817 91.2047 57.9651 91.7901C58.5506 91.9072 59.7215 92.1414 60.5802 92.3756C62.3756 92.7659 65.9664 92.3756 67.3325 91.634C68.7376 90.8924 69.4791 88.6677 69.7524 84.3743C70.0646 79.5735 70.7281 78.0123 73.4212 75.9827C78.4172 72.2748 81.4616 67.7863 82.008 63.3758C82.2031 61.8927 82.4373 61.2291 82.7105 61.4243C83.0228 61.5804 83.0618 61.4243 82.8667 60.9169C82.7105 60.5266 82.4764 59.1995 82.3593 58.0286C82.2422 56.8577 81.9299 55.6087 81.6177 55.2965C81.3445 54.9842 81.1103 54.5939 81.1103 54.3988C81.1493 53.5011 80.5638 51.7447 80.1735 51.5105C79.9003 51.3154 79.1978 50.4177 78.5733 49.4809C75.685 45.0314 72.3674 42.6115 66.8251 40.8942C64.3271 40.1136 62.6878 39.9574 60.9705 40.3478ZM68.8937 44.5631C73.109 46.5146 74.4751 47.8416 76.6998 52.2521C79.2759 57.3651 79.9394 60.8779 78.9246 64.0003C77.9488 67.0057 76.1924 69.8549 74.358 71.4552C73.4213 72.2358 71.86 73.5628 70.8843 74.4215C69.0888 75.9827 67.0202 79.4174 67.0202 80.9006C67.0202 81.8373 65.8883 82.3057 64.9516 81.7592C64.6003 81.6031 63.2343 81.3689 61.8682 81.2519C60.5021 81.1738 58.7457 80.9786 57.9651 80.8225C56.5991 80.5883 56.4819 80.4712 56.4819 79.2613C56.4819 78.5587 56.3258 77.8952 56.1307 77.7391C55.9355 77.622 55.6233 76.9585 55.5062 76.2559C55.0768 74.2654 54.2182 72.8993 52.9302 72.1187C51.1348 71.0258 47.8952 66.7325 46.9975 64.3126C46.1388 61.8536 45.7876 55.0233 46.5682 54.5939C46.8024 54.4378 47.1146 54.0475 47.2317 53.7353C47.4659 53.1888 48.0904 52.2131 48.7539 51.2373C49.8077 49.7151 51.9934 47.4904 52.4618 47.4904C52.735 47.4904 53.3205 47.1391 53.7108 46.7488C57.0284 43.4312 64.21 42.4164 68.8937 44.5631ZM62.2585 84.1792C64.4442 84.3743 66.4348 84.6475 66.6299 84.7646C67.3715 85.233 67.0593 87.5358 66.0835 88.5896C65.1858 89.5263 64.9516 89.6044 62.1804 89.4483C60.5802 89.3702 58.8628 89.097 58.3554 88.8238C57.0674 88.1603 56.0916 86.9113 56.0916 85.9746C56.0916 85.5062 55.9746 84.7256 55.8184 84.2182C55.5843 83.3205 55.6623 83.2815 56.9113 83.5547C57.6529 83.7108 60.0337 83.984 62.2585 84.1792Z" fill="#474747"/>
<path fill-rule="evenodd" clip-rule="evenodd" d="M61.5164 47.8807C60.6187 48.6223 60.6187 48.7004 61.2822 49.2078C61.6725 49.52 62.8825 49.8713 63.9363 50.0274C65.5756 50.2616 66.2391 50.6519 68.2297 52.4863C70.8447 54.9062 71.7034 56.5065 71.7034 59.0825C71.7034 62.1659 72.9914 63.2978 74.2794 61.3463C75.6455 59.2386 73.8501 53.9695 70.7276 50.8861C68.62 48.8565 65.3414 47.1001 63.585 47.1001C62.9215 47.1001 62.0238 47.4514 61.5164 47.8807Z" fill="#474747"/>
<path fill-rule="evenodd" clip-rule="evenodd" d="M32.2035 57.9117C30.6423 58.0678 29.5104 59.3168 30.2129 60.0194C30.6423 60.4487 36.7701 61.1903 37.5117 60.9171C38.2923 60.6048 38.5265 59.3559 37.98 58.5752C37.4726 57.8727 34.8966 57.5995 32.2035 57.9117Z" fill="#474747"/>
<path fill-rule="evenodd" clip-rule="evenodd" d="M88.5646 59.3558C86.9254 59.9412 86.5351 60.4096 86.9644 61.4244C87.2766 62.2831 87.5108 62.3221 90.7504 62.3221C93.3264 62.3221 94.3802 62.166 94.7315 61.7366C95.3169 61.0341 94.8876 59.59 94.0289 59.5509C93.6776 59.5509 92.5458 59.3948 91.57 59.2387C90.5162 59.0826 89.3062 59.1216 88.5646 59.3558Z" fill="#474747"/>
<path fill-rule="evenodd" clip-rule="evenodd" d="M40.7517 78.6758C38.8392 80.7054 38.644 81.9544 40.1662 82.4618C40.7517 82.6179 41.4152 82.2276 42.8593 80.8225C44.8109 78.91 45.1231 78.0513 44.3035 77.2317C43.4838 76.4121 42.5471 76.7243 40.7517 78.6758Z" fill="#474747"/>
<path fill-rule="evenodd" clip-rule="evenodd" d="M79.4307 77.9731C78.3768 78.5586 78.572 79.6514 80.0942 81.4468C80.8357 82.3445 81.4602 83.2422 81.4602 83.4374C81.4602 83.6325 81.8896 84.0228 82.436 84.257C83.2556 84.6083 83.5679 84.6083 84.0753 84.1009C84.973 83.2032 84.5046 81.9932 82.436 79.5733C80.4845 77.3876 80.4455 77.3486 79.4307 77.9731Z" fill="#474747"/>
</svg>
