<svg width="126" height="127" viewBox="0 0 126 127" fill="none" xmlns="http://www.w3.org/2000/svg">
<rect width="126" height="127" rx="15" fill="#FCF5C2"/>
<path fill-rule="evenodd" clip-rule="evenodd" d="M52.3346 36.345C51.9813 36.6983 51.9269 37.1603 52.0628 38.8723C52.1715 40.3398 52.0628 41.6442 51.7367 43.2747C50.9215 47.2151 51.628 50.4762 53.6118 52.161C56.275 54.4166 58.2316 55.0145 60.5143 54.3079C61.0035 54.1448 61.2481 54.634 63.3406 59.9875C64.3189 62.5692 64.4004 62.8681 64.4547 66.102L64.5091 69.4989L65.2157 69.5804C65.7048 69.6347 66.0037 69.4989 66.1396 69.1728C66.4657 68.3032 66.5472 63.629 66.2483 62.5964C66.0037 61.7539 66.0581 61.4006 66.6831 59.9875C67.9332 57.2156 68.5854 56.8895 70.8409 57.9766C72.5258 58.819 75.5423 58.8462 76.8739 58.0581C77.3902 57.7592 77.9609 57.27 78.0967 56.9711C78.2598 56.6993 78.6131 56.1286 78.8848 55.6938C79.2381 55.1775 79.4555 54.172 79.5914 52.2969C79.7816 49.7968 80.1349 48.4652 81.1132 46.726C81.3849 46.264 81.4665 45.6933 81.3578 45.2585C81.1675 44.4433 80.8414 44.4704 77.825 45.5031C76.7923 45.8836 74.8357 46.3184 73.4769 46.5086C72.1454 46.6988 70.6779 46.9977 70.2159 47.1608C68.993 47.6228 67.0908 49.4979 66.5201 50.8023C66.0309 51.9708 65.8407 54.3079 66.1396 55.5308C66.2755 56.0199 66.1396 56.5091 65.6776 57.1613L65.0526 58.1124L64.5634 56.9982C64.2917 56.4004 63.721 55.1503 63.259 54.2264L62.4438 52.5687L63.3949 51.2099C63.9384 50.4762 64.3732 49.6881 64.3732 49.4435C64.3732 49.1989 64.5091 48.9272 64.6721 48.8185C64.8896 48.7098 64.9439 47.9489 64.8624 46.6716C64.7537 44.9868 64.6178 44.552 63.8025 43.4921C62.8786 42.2421 60.1882 40.2311 58.9382 39.8778C57.7968 39.5245 55.2695 38.1929 54.8619 37.7038C54.6445 37.432 54.3455 36.9701 54.1825 36.644C53.8292 35.9374 52.9053 35.7743 52.3346 36.345ZM55.9489 40.8289C56.6826 40.8289 60.1339 42.6769 61.085 43.5737C62.3079 44.7422 63.096 46.5358 62.8786 47.6771C62.7699 48.1663 62.3894 48.9544 61.9818 49.4435L61.2481 50.3131L60.0252 48.3021C58.7479 46.2097 58.0142 45.6118 57.2261 46.0466C56.4652 46.4542 56.6826 47.2423 58.2588 49.6881C59.1012 50.9653 59.6991 52.1067 59.6175 52.2697C59.2914 52.7861 57.6609 52.5143 56.438 51.6991C54.9162 50.6936 54.5086 50.2316 53.9651 48.7641C53.3944 47.3238 53.3944 46.8347 53.9379 43.0845C54.3999 40.0952 54.4271 40.0409 54.9706 40.4485C55.2695 40.6387 55.7043 40.8289 55.9489 40.8289ZM78.2326 48.0032C78.2326 48.0576 78.0696 48.5196 77.8522 49.0087C77.6619 49.525 77.4174 51.0197 77.3358 52.3513C77.2271 53.7644 77.0097 55.0144 76.7652 55.3677C75.9499 56.6178 73.6128 56.8624 71.4116 55.9384L70.5148 55.558L72.0638 54.5796C73.2324 53.8187 73.6128 53.4383 73.6128 52.9491C73.6128 52.5959 73.4226 52.2154 73.178 52.1339C72.6617 51.9436 70.08 53.1393 68.9387 54.0905C68.5039 54.4709 68.0962 54.6883 68.0147 54.6068C67.9332 54.5253 67.9875 53.7916 68.1506 52.9491C68.6669 50.2044 69.6996 49.362 73.1508 48.8457C74.5368 48.6283 76.0858 48.3293 76.6021 48.1935C77.6891 47.9217 78.2326 47.8402 78.2326 48.0032Z" fill="#474747"/>
<path fill-rule="evenodd" clip-rule="evenodd" d="M91.8201 59.8789C91.3038 60.0148 90.5429 60.1778 90.1353 60.2865C89.1026 60.5311 84.972 64.6618 82.9882 67.4336C82.0914 68.6565 80.6511 70.4229 79.7815 71.3197L78.2053 72.9502L77.6075 72.4067C76.3031 71.211 73.3953 70.8305 69.156 71.2925C66.5743 71.5643 65.6232 71.5643 64.0198 71.2653C61.9817 70.8849 61.6012 70.749 57.9326 68.8468C56.6825 68.2217 55.5683 67.7597 55.4324 67.8413C55.2966 67.9228 55.052 67.8141 54.8618 67.5967C54.6715 67.3793 54.3998 67.189 54.2639 67.189C54.128 67.189 53.1769 66.8086 52.1986 66.3466C51.1931 65.8575 50.1333 65.3955 49.8343 65.2868C49.5354 65.1781 48.856 64.9335 48.3397 64.7433C47.8234 64.553 46.1928 64.2813 44.7526 64.1182L42.0894 63.8465L38.9099 65.4498C35.6488 67.0804 33.0128 68.8739 32.0617 70.0696C31.5725 70.6947 31.4095 71.5914 31.0834 75.8851C30.8932 78.2766 30.5942 79.8256 30.2138 80.2604C29.6974 80.8854 30.1594 81.9724 31.1377 82.3529C31.5454 82.5159 33.7466 82.7061 35.9749 82.7877C43.4753 83.0594 44.5623 83.2225 45.758 84.2823C46.057 84.5269 46.8451 84.9617 47.5244 85.2334C50.2148 86.3205 56.5195 89.5815 56.764 90.0163C56.8999 90.2609 57.7695 90.7772 58.7207 91.1033C60.1066 91.6468 60.9762 91.7555 63.2861 91.7555C66.9004 91.7555 67.0635 91.7283 69.8353 90.2065C71.1126 89.5271 72.7703 88.7934 73.504 88.6304C75.7596 88.0868 77.9879 87.2716 80.4065 86.1302C84.8633 84.0106 86.7927 82.0539 89.1026 77.3798C93.8039 67.8413 94.4833 66.102 94.9725 62.5149C95.2171 60.6398 93.8039 59.4713 91.8201 59.8789ZM93.0974 62.1616C93.2604 62.6236 91.956 66.7271 91.3853 67.5967C91.1679 67.8956 91.0049 68.3576 91.0049 68.6293C91.0049 68.9011 90.706 69.5805 90.3255 70.124C89.9451 70.6675 89.6461 71.2382 89.6461 71.3469C89.6461 71.8088 86.9014 77.3526 85.7872 79.1462C84.1567 81.8094 82.8251 82.7605 77.1455 85.3421C76.1672 85.8041 74.7812 86.2389 74.0203 86.3476C73.2866 86.4563 71.6833 86.9998 70.4876 87.5433C67.4167 88.9836 66.9004 89.1739 64.9166 89.4456C62.9056 89.7174 60.9218 89.5 59.9707 88.8749C59.6446 88.6575 58.8565 88.3042 58.2587 88.114C57.6608 87.9238 56.8456 87.5433 56.4379 87.2444C56.0575 86.9727 54.7531 86.3205 53.5845 85.7769C52.416 85.2334 51.2203 84.6628 50.9213 84.4997C50.6224 84.3367 49.78 83.929 49.0191 83.5757C48.2853 83.2225 47.307 82.7605 46.8451 82.4887C46.4102 82.2442 45.7309 81.8909 45.3504 81.7007C44.508 81.293 37.4424 80.4506 35.0238 80.5049C34.0455 80.5321 33.1215 80.5321 32.9313 80.5321C32.6052 80.5049 32.6324 79.8799 32.9857 77.0809C33.0672 76.483 33.2031 75.0699 33.2846 73.9557C33.3389 72.8415 33.502 71.9176 33.6379 71.8632C33.7737 71.8088 34.2357 71.4827 34.6705 71.1023C37.7957 68.3032 39.2903 67.4608 42.4427 66.7543C44.9428 66.1836 47.4973 66.5369 49.78 67.7597C50.0789 67.9228 50.3507 67.9771 50.4594 67.8956C50.5409 67.8141 50.9757 67.9771 51.4377 68.2489C51.8997 68.5206 52.579 68.8467 52.9595 68.9554C53.3399 69.0641 53.9378 69.3903 54.2911 69.662C54.6444 69.9609 55.215 70.1783 55.5411 70.1783C55.8944 70.1783 56.3564 70.4773 56.601 70.8577C56.8456 71.2382 57.2532 71.5371 57.5249 71.5371C57.7695 71.5371 58.7207 71.836 59.6174 72.2165C60.5142 72.5698 61.5741 72.8959 61.9817 72.8959C62.3893 72.8959 62.7969 73.0317 62.8785 73.1676C62.9872 73.3307 63.2861 73.385 63.5579 73.3035C63.8296 73.222 64.3459 73.2763 64.6992 73.4665C65.2155 73.684 66.3569 73.6568 69.4549 73.3307C73.5312 72.923 73.8029 72.923 76.0041 73.7383C76.8737 74.0644 76.765 75.2058 75.7324 76.5645C74.1019 78.657 73.966 78.7114 69.5364 78.7385C64.2916 78.7385 60.5686 78.6027 58.2587 78.2766C56.1118 77.9776 54.59 78.2766 53.5845 79.2005C53.0954 79.6625 53.041 79.8799 53.2584 80.2875C53.503 80.7223 53.7204 80.8039 54.3998 80.6408C55.5955 80.3691 57.9869 80.3419 61.5197 80.5865C69.6179 81.1028 70.5147 81.1028 72.1181 80.7767C73.0149 80.5865 73.9388 80.3962 74.1834 80.3691C74.7269 80.3147 77.4172 78.032 77.4172 77.6244C77.4172 77.4613 77.6618 77.108 77.9608 76.8363C78.2597 76.5645 78.5586 75.9395 78.6673 75.4503C78.7488 74.934 78.9391 74.5264 79.0749 74.5264C79.4826 74.5264 80.9229 73.1404 81.0859 72.5969C81.1946 72.298 81.412 72.0806 81.6294 72.0806C81.8196 72.0806 82.1729 71.7545 82.4447 71.374C82.6893 70.9936 83.1512 70.4229 83.4773 70.0968C84.2926 69.2815 85.8416 67.2434 85.8416 66.9716C85.8416 66.6184 88.858 63.5204 90.0538 62.5964C91.2766 61.6997 92.8256 61.4822 93.0974 62.1616Z" fill="#474747"/>
</svg>
